<svg
  width="26"
  height="30"
  viewBox="0 0 26 30"
  fill="none"
  xmlns="http://www.w3.org/2000/svg"
>
  <path
    d="M23.55 17.9624C23.3745 17.8539 23.231 17.7006 23.1344 17.5182C23.0377 17.3359 22.9913 17.1311 23 16.9249V12.8624C23.0077 10.824 22.4205 8.82754 21.3104 7.11788C20.2002 5.40822 18.6153 4.05963 16.75 3.23745C16.6136 2.35231 16.1649 1.54522 15.4851 0.962166C14.8053 0.37911 13.9393 0.0585938 13.0437 0.0585938C12.1482 0.0585938 11.2821 0.37911 10.6024 0.962166C9.92256 1.54522 9.47388 2.35231 9.33748 3.23745C8.12229 3.72146 7.01385 4.43918 6.07498 5.34995C5.10595 6.27216 4.33387 7.38119 3.80536 8.61008C3.27686 9.83897 3.00288 11.1622 2.99998 12.4999V16.9249C3.00865 17.1311 2.96227 17.3359 2.86561 17.5182C2.76895 17.7006 2.6255 17.8539 2.44998 17.9624C1.75669 18.3288 1.1957 18.9033 0.845909 19.6052C0.496121 20.307 0.37514 21.1008 0.499982 21.8749C0.674045 22.7713 1.16003 23.577 1.87169 24.1491C2.58335 24.7211 3.47467 25.0226 4.38748 24.9999H7.99998C7.99998 26.326 8.52677 27.5978 9.46445 28.5355C10.4021 29.4732 11.6739 29.9999 13 29.9999C14.3261 29.9999 15.5978 29.4732 16.5355 28.5355C17.4732 27.5978 18 26.326 18 24.9999H21.6125C22.5253 25.0226 23.4166 24.7211 24.1283 24.1491C24.8399 23.577 25.3259 22.7713 25.5 21.8749C25.6248 21.1008 25.5038 20.307 25.1541 19.6052C24.8043 18.9033 24.2433 18.3288 23.55 17.9624ZM13 27.4999C12.3369 27.4999 11.7011 27.2366 11.2322 26.7677C10.7634 26.2989 10.5 25.663 10.5 24.9999H15.5C15.5 25.663 15.2366 26.2989 14.7677 26.7677C14.2989 27.2366 13.663 27.4999 13 27.4999ZM21.6125 22.4999H4.38748C4.07346 22.5154 3.76375 22.4218 3.51086 22.235C3.25798 22.0482 3.07748 21.7796 2.99998 21.4749C2.9526 21.2151 2.98877 20.9468 3.10331 20.7088C3.21784 20.4707 3.40484 20.2751 3.63748 20.1499C4.20795 19.8281 4.68166 19.3591 5.00924 18.7918C5.33682 18.2246 5.50629 17.5799 5.49998 16.9249V12.4999C5.49904 11.4953 5.69993 10.5008 6.09073 9.57532C6.48154 8.64985 7.05429 7.81232 7.77498 7.11244C8.36689 6.53326 9.05672 6.06351 9.81248 5.72495C10.8067 5.24585 11.8964 4.99799 13 4.99995H13.2375C14.2592 5.03554 15.2612 5.29137 16.175 5.74995C17.4819 6.42109 18.5776 7.44072 19.3409 8.69601C20.1043 9.9513 20.5054 11.3933 20.5 12.8624V16.9249C20.4924 17.5787 20.66 18.2225 20.9853 18.7896C21.3107 19.3568 21.7818 19.8264 22.35 20.1499C22.5826 20.2725 22.7706 20.4654 22.8873 20.701C23.004 20.9367 23.0435 21.2031 23 21.4624C22.9249 21.7695 22.7455 22.0409 22.4924 22.2301C22.2393 22.4194 21.9282 22.5148 21.6125 22.4999Z"
    fill="#2E2E2E"
  />
</svg>
