<svg
  width="33"
  height="36"
  viewBox="0 0 33 36"
  fill="none"
  xmlns="http://www.w3.org/2000/svg"
>
  <path
    d="M32.7129 33.3604L27.1053 24.9198C26.9537 24.6961 26.7521 24.5133 26.5176 24.3865C26.283 24.2598 26.0223 24.193 25.7574 24.1917H20.3231C20.1782 24.1917 20.0393 24.2509 19.9369 24.3563C19.8345 24.4618 19.7769 24.6048 19.7769 24.754C19.7769 24.9031 19.8345 25.0461 19.9369 25.1516C20.0393 25.257 20.1782 25.3163 20.3231 25.3163H25.7574C25.8459 25.3172 25.9329 25.3399 26.0112 25.3824C26.0895 25.4249 26.1568 25.486 26.2076 25.5606L26.6815 26.2739L20.4074 29.8147H3.96609L6.78863 25.5667C6.83926 25.4905 6.90692 25.428 6.98591 25.3844C7.06491 25.3409 7.15292 25.3175 7.24253 25.3163H12.6769C12.8217 25.3163 12.9607 25.257 13.0631 25.1516C13.1655 25.0461 13.2231 24.9031 13.2231 24.754C13.2231 24.6048 13.1655 24.4618 13.0631 24.3563C12.9607 24.2509 12.8217 24.1917 12.6769 24.1917H7.24253C6.97654 24.1932 6.71483 24.2608 6.47957 24.3886C6.24432 24.5164 6.04243 24.7007 5.89101 24.9258L0.287038 33.3604C0.11831 33.6137 0.0200071 33.9097 0.00274412 34.2164C-0.0145189 34.523 0.049914 34.8287 0.189085 35.1004C0.328256 35.3721 0.536877 35.5995 0.792421 35.7581C1.04796 35.9166 1.34072 36.0003 1.63908 36H31.3609C31.6593 36.0003 31.952 35.9166 32.2076 35.7581C32.4631 35.5995 32.6717 35.3721 32.8109 35.1004C32.9501 34.8287 33.0145 34.523 32.9973 34.2164C32.98 33.9097 32.8817 33.6137 32.7129 33.3604ZM20.5471 30.9393C20.6388 30.9392 20.729 30.9155 20.8095 30.8701L27.3012 27.2066L28.2082 28.5717L16.9074 34.8754H13.7168L16.828 33.1193C16.9343 33.0594 17.0183 32.9646 17.0666 32.8501C17.1148 32.7356 17.1247 32.6077 17.0947 32.4868C17.0646 32.3658 16.9963 32.2586 16.9005 32.182C16.8047 32.1055 16.6869 32.0639 16.5656 32.0639H2.47163L3.21887 30.9393H20.5471ZM1.15534 34.5761C1.10769 34.4858 1.08553 34.3835 1.09137 34.2808C1.09722 34.1781 1.13083 34.0792 1.18841 33.9952L1.7244 33.1885H14.4332L11.4448 34.8754H1.63908C1.53935 34.877 1.44119 34.8498 1.3557 34.7969C1.27022 34.744 1.20081 34.6675 1.15534 34.5761ZM31.8446 34.5761C31.7992 34.6675 31.7298 34.744 31.6443 34.7969C31.5588 34.8498 31.4606 34.877 31.3609 34.8754H19.2009L28.8283 29.505L31.8116 33.9952C31.8692 34.0792 31.9028 34.1781 31.9086 34.2808C31.9144 34.3835 31.8923 34.4858 31.8446 34.5761Z"
    fill="#F88502"
  />
  <path
    d="M13.4657 23.1969C13.7054 23.2569 13.9189 23.3971 14.0727 23.5956C14.2265 23.7941 14.3118 24.0396 14.3154 24.2935V26.4408C14.3154 27.0374 14.5455 27.6095 14.9552 28.0313C15.3649 28.4531 15.9206 28.6901 16.5 28.6901C17.0794 28.6901 17.6351 28.4531 18.0448 28.0313C18.4545 27.6095 18.6846 27.0374 18.6846 26.4408V24.2921C18.682 24.0491 18.7572 23.8119 18.8986 23.6173C19.04 23.4227 19.2398 23.2815 19.4671 23.2156C22.1522 22.4752 24.4848 20.756 26.0311 18.3777C27.5775 15.9994 28.2322 13.1239 27.8737 10.2858C27.5152 7.44777 26.1679 4.84033 24.0821 2.94837C21.9964 1.05642 19.3143 0.00870104 16.5345 5.39538e-05C13.7547 -0.00859314 11.0665 1.02242 8.96973 2.90136C6.87293 4.78031 5.51026 7.37932 5.13511 10.2151C4.75996 13.0509 5.39786 15.9304 6.93019 18.3183C8.46252 20.7061 10.785 22.4398 13.4657 23.1969ZM15.9325 1.15285C16.1245 1.14241 16.3156 1.13718 16.5059 1.13718C19.0224 1.13704 21.4531 2.07901 23.3449 3.78751C25.2368 5.49601 26.4607 7.85447 26.7885 10.4233C27.1164 12.9921 26.5258 15.5961 25.1268 17.7498C23.7279 19.9034 21.616 21.4599 19.1849 22.1291C18.7254 22.2593 18.3204 22.5417 18.0325 22.9327C17.7446 23.3237 17.5899 23.8015 17.5923 24.2921V26.4408C17.5923 26.7391 17.4772 27.0252 17.2724 27.2361C17.0675 27.447 16.7897 27.5654 16.5 27.5654C16.2103 27.5654 15.9325 27.447 15.7276 27.2361C15.5228 27.0252 15.4077 26.7391 15.4077 26.4408V24.2935C15.4015 23.7938 15.2364 23.3099 14.9377 22.916C14.639 22.5221 14.2231 22.2398 13.7538 22.1124C11.5931 21.4953 9.68352 20.1769 8.30892 18.3531C6.93432 16.5292 6.16808 14.2973 6.12413 11.9893C6.10324 9.23432 7.10826 6.57582 8.93257 4.56029C10.7569 2.54477 13.2619 1.32541 15.9325 1.15285Z"
    fill="#F88502"
  />
  <path
    d="M16.5 20.2555C18.1203 20.2555 19.7042 19.7608 21.0514 18.834C22.3986 17.9072 23.4486 16.5899 24.0687 15.0487C24.6888 13.5075 24.851 11.8116 24.5349 10.1754C24.2188 8.53927 23.4385 7.03637 22.2928 5.85678C21.1471 4.67719 19.6874 3.87387 18.0982 3.54842C16.509 3.22297 14.8618 3.39001 13.3649 4.0284C11.8679 4.66679 10.5885 5.74787 9.68828 7.13492C8.78809 8.52198 8.30762 10.1527 8.30762 11.8209C8.31003 14.0571 9.17393 16.201 10.7098 17.7823C12.2456 19.3635 14.328 20.253 16.5 20.2555ZM16.5 4.51096C17.9042 4.51096 19.2769 4.93968 20.4445 5.74291C21.6121 6.54614 22.5222 7.6878 23.0595 9.02351C23.5969 10.3592 23.7375 11.829 23.4636 13.247C23.1896 14.665 22.5134 15.9675 21.5204 16.9898C20.5275 18.0121 19.2624 18.7083 17.8851 18.9904C16.5078 19.2724 15.0803 19.1277 13.7829 18.5744C12.4855 18.0211 11.3767 17.0842 10.5965 15.8821C9.81634 14.68 9.39993 13.2667 9.39993 11.8209C9.40206 9.88286 10.1508 8.02482 11.4818 6.65442C12.8129 5.28401 14.6176 4.51316 16.5 4.51096Z"
    fill="#F88502"
  />
  <path
    d="M18.6846 11.741V15.1947C18.6846 15.3438 18.7422 15.4869 18.8446 15.5923C18.947 15.6978 19.0859 15.757 19.2308 15.757C19.3756 15.757 19.5145 15.6978 19.617 15.5923C19.7194 15.4869 19.7769 15.3438 19.7769 15.1947V11.741C20.2447 11.6171 20.6593 11.3369 20.9558 10.9443C21.2523 10.5517 21.414 10.069 21.4154 9.57168V8.44707C21.4154 8.29794 21.3579 8.15491 21.2554 8.04946C21.153 7.94401 21.0141 7.88477 20.8692 7.88477C20.7244 7.88477 20.5855 7.94401 20.483 8.04946C20.3806 8.15491 20.3231 8.29794 20.3231 8.44707V9.57168C20.3225 9.76818 20.2717 9.96106 20.1758 10.131C20.08 10.3009 19.9424 10.4419 19.7769 10.5398V8.44707C19.7769 8.29794 19.7194 8.15491 19.617 8.04946C19.5145 7.94401 19.3756 7.88477 19.2308 7.88477C19.0859 7.88477 18.947 7.94401 18.8446 8.04946C18.7422 8.15491 18.6846 8.29794 18.6846 8.44707V10.5398C18.5191 10.4419 18.3816 10.3009 18.2857 10.131C18.1899 9.96106 18.1391 9.76818 18.1385 9.57168V8.44707C18.1385 8.29794 18.0809 8.15491 17.9785 8.04946C17.8761 7.94401 17.7371 7.88477 17.5923 7.88477C17.4474 7.88477 17.3085 7.94401 17.2061 8.04946C17.1037 8.15491 17.0461 8.29794 17.0461 8.44707V9.57168C17.0476 10.069 17.2092 10.5517 17.5057 10.9443C17.8022 11.3369 18.2168 11.6171 18.6846 11.741Z"
    fill="#F88502"
  />
  <path
    d="M13.2231 12.8656V15.1947C13.2231 15.3438 13.2806 15.4869 13.383 15.5923C13.4855 15.6978 13.6244 15.757 13.7692 15.757C13.9141 15.757 14.053 15.6978 14.1554 15.5923C14.2578 15.4869 14.3154 15.3438 14.3154 15.1947V12.8656C14.7832 12.7417 15.1978 12.4615 15.4943 12.0689C15.7908 11.6763 15.9524 11.1936 15.9538 10.6963C15.9538 9.57689 15.0823 7.88477 13.7692 7.88477C12.4561 7.88477 11.5846 9.57689 11.5846 10.6963C11.586 11.1936 11.7477 11.6763 12.0442 12.0689C12.3407 12.4615 12.7553 12.7417 13.2231 12.8656ZM13.7692 9.00937C14.2967 9.00937 14.8615 9.99944 14.8615 10.6963C14.8615 10.9945 14.7464 11.2806 14.5416 11.4915C14.3368 11.7024 14.0589 11.8209 13.7692 11.8209C13.4795 11.8209 13.2017 11.7024 12.9968 11.4915C12.792 11.2806 12.6769 10.9945 12.6769 10.6963C12.6769 9.99944 13.2417 9.00937 13.7692 9.00937Z"
    fill="#F88502"
  />
</svg>
