<svg
  width="40"
  height="40"
  viewBox="0 0 40 40"
  fill="none"
  xmlns="http://www.w3.org/2000/svg"
>
  <path
    d="M11.5667 36.25H1.33333V6.24995H26.6667V18.8C26.6667 18.9658 26.7369 19.1248 26.8619 19.242C26.987 19.3592 27.1565 19.425 27.3333 19.425C27.5101 19.425 27.6797 19.3592 27.8047 19.242C27.9298 19.1248 28 18.9658 28 18.8V5.62495C28 5.45919 27.9298 5.30022 27.8047 5.18301C27.6797 5.0658 27.5101 4.99995 27.3333 4.99995H25.3333V0.624947C25.3333 0.53136 25.3109 0.438966 25.2678 0.354586C25.2246 0.270207 25.1617 0.195998 25.0839 0.137439C25.006 0.0788795 24.9151 0.0374664 24.8179 0.0162574C24.7206 -0.00495167 24.6196 -0.00541487 24.5221 0.014902L0.522133 5.01491C0.377697 5.05214 0.249473 5.13115 0.155724 5.24069C0.0619753 5.35022 0.00748038 5.48469 0 5.62495V36.875C0 37.0408 0.0702379 37.1997 0.195262 37.3169C0.320286 37.4341 0.489856 37.5 0.666667 37.5H11.5667C11.7435 37.5 11.9131 37.4341 12.0381 37.3169C12.1632 37.1997 12.2334 37.0408 12.2334 36.875C12.2334 36.7092 12.1632 36.5503 12.0381 36.4331C11.9131 36.3158 11.7435 36.25 11.5667 36.25ZM24 4.99995H6.7395L24 1.40406V4.99995Z"
    fill="white"
  />
  <path
    d="M24.6666 19.8001C24.8434 19.8001 25.013 19.7343 25.138 19.6171C25.263 19.4999 25.3333 19.3409 25.3333 19.1751V11.25C25.3333 11.0842 25.2631 10.9253 25.138 10.8081C25.013 10.6909 24.8434 10.625 24.6666 10.625C23.9596 10.6242 23.2818 10.3606 22.7819 9.89193C22.282 9.42326 22.0008 8.78781 22 8.125C22 7.95924 21.9297 7.80027 21.8047 7.68306C21.6797 7.56585 21.5101 7.5 21.3333 7.5H6.66663C6.48981 7.5 6.32025 7.56585 6.19522 7.68306C6.0702 7.80027 5.99996 7.95924 5.99996 8.125C5.99915 8.78781 5.71794 9.42326 5.21802 9.89193C4.7181 10.3606 4.04029 10.6242 3.33329 10.625C3.15648 10.625 2.98691 10.6909 2.86189 10.8081C2.73686 10.9253 2.66663 11.0842 2.66663 11.25V31.25C2.66663 31.4158 2.73686 31.5748 2.86189 31.692C2.98691 31.8092 3.15648 31.875 3.33329 31.875C4.04029 31.8758 4.7181 32.1394 5.21802 32.6081C5.71794 33.0768 5.99915 33.7122 5.99996 34.375C5.99996 34.5408 6.0702 34.6998 6.19522 34.817C6.32025 34.9342 6.48981 35 6.66663 35H13.3333C13.5101 35 13.6797 34.9342 13.8047 34.817C13.9297 34.6998 14 34.5408 14 34.375C14 34.2093 13.9297 34.0503 13.8047 33.9331C13.6797 33.8159 13.5101 33.75 13.3333 33.75H7.27763C7.13788 32.9827 6.74751 32.275 6.1604 31.7246C5.57329 31.1742 4.81841 30.8082 3.99996 30.6772V11.8228C4.81841 11.6918 5.57329 11.3258 6.1604 10.7754C6.74751 10.225 7.13788 9.5173 7.27763 8.75H20.7223C20.862 9.5173 21.2524 10.225 21.8395 10.7754C22.4266 11.3258 23.1815 11.6918 24 11.8228V19.1751C24 19.3409 24.0702 19.4999 24.1952 19.6171C24.3203 19.7343 24.4898 19.8001 24.6666 19.8001Z"
    fill="white"
  />
  <path
    d="M38 36.25V34.375C37.9956 31.9942 37.1391 29.6837 35.5678 27.8134C33.9964 25.9431 31.8011 24.6212 29.3334 24.0594V23.125C29.3334 22.462 29.0524 21.8261 28.5523 21.3572C28.0522 20.8884 27.374 20.625 26.6667 20.625C25.9595 20.625 25.2812 20.8884 24.7811 21.3572C24.281 21.8261 24 22.462 24 23.125V24.0594C21.5323 24.6212 19.337 25.9431 17.7657 27.8134C16.1943 29.6837 15.3379 31.9942 15.3334 34.375V36.25C14.8029 36.25 14.2942 36.4476 13.9192 36.7992C13.5441 37.1508 13.3334 37.6277 13.3334 38.125C13.3334 38.6223 13.5441 39.0992 13.9192 39.4508C14.2942 39.8025 14.8029 40 15.3334 40H38C38.5305 40 39.0392 39.8025 39.4143 39.4508C39.7893 39.0992 40 38.6223 40 38.125C40 37.6277 39.7893 37.1508 39.4143 36.7992C39.0392 36.4476 38.5305 36.25 38 36.25ZM25.3334 23.125C25.3334 22.7935 25.4738 22.4755 25.7239 22.2411C25.9739 22.0067 26.3131 21.875 26.6667 21.875C27.0203 21.875 27.3595 22.0067 27.6095 22.2411C27.8596 22.4755 28 22.7935 28 23.125V23.8303C27.1148 23.7233 26.2186 23.7233 25.3334 23.8303V23.125ZM16.6667 35H32C32.1769 35 32.3464 34.9342 32.4714 34.817C32.5965 34.6998 32.6667 34.5408 32.6667 34.375C32.6667 34.2093 32.5965 34.0503 32.4714 33.9331C32.3464 33.8159 32.1769 33.75 32 33.75H16.7005C16.8666 31.378 17.9889 29.154 19.8396 27.5291C21.6904 25.9042 24.1311 25 26.6667 25C29.2023 25 31.643 25.9042 33.4938 27.5291C35.3446 29.154 36.4668 31.378 36.6329 33.75H34.6667C34.4899 33.75 34.3203 33.8159 34.1953 33.9331C34.0703 34.0503 34 34.2093 34 34.375C34 34.5408 34.0703 34.6998 34.1953 34.817C34.3203 34.9342 34.4899 35 34.6667 35H36.6667V36.25H16.6667V35ZM38 38.75H15.3334C15.1566 38.75 14.987 38.6842 14.862 38.567C14.7369 38.4498 14.6667 38.2908 14.6667 38.125C14.6667 37.9593 14.7369 37.8003 14.862 37.6831C14.987 37.5659 15.1566 37.5 15.3334 37.5H38C38.1768 37.5 38.3464 37.5659 38.4714 37.6831C38.5965 37.8003 38.6667 37.9593 38.6667 38.125C38.6667 38.2908 38.5965 38.4498 38.4714 38.567C38.3464 38.6842 38.1768 38.75 38 38.75Z"
    fill="white"
  />
  <path
    d="M15.3333 10C15.1565 10 14.9869 10.0658 14.8619 10.1831C14.7369 10.3003 14.6666 10.4592 14.6666 10.625V12.5C14.6684 13.0527 14.8657 13.5893 15.2276 14.0257C15.5896 14.462 16.0957 14.7735 16.6666 14.9113V18.125C16.6666 18.2908 16.7369 18.4497 16.8619 18.567C16.9869 18.6842 17.1565 18.75 17.3333 18.75C17.5101 18.75 17.6797 18.6842 17.8047 18.567C17.9297 18.4497 18 18.2908 18 18.125V14.9113C18.5709 14.7735 19.077 14.462 19.4389 14.0257C19.8009 13.5893 19.9982 13.0527 20 12.5V10.625C20 10.4592 19.9297 10.3003 19.8047 10.1831C19.6797 10.0658 19.5101 10 19.3333 10C19.1565 10 18.9869 10.0658 18.8619 10.1831C18.7369 10.3003 18.6666 10.4592 18.6666 10.625V12.5C18.6659 12.7184 18.6039 12.9328 18.4869 13.1217C18.3699 13.3106 18.202 13.4673 18 13.5762V10.625C18 10.4592 17.9297 10.3003 17.8047 10.1831C17.6797 10.0658 17.5101 10 17.3333 10C17.1565 10 16.9869 10.0658 16.8619 10.1831C16.7369 10.3003 16.6666 10.4592 16.6666 10.625V13.5762C16.4646 13.4673 16.2967 13.3106 16.1797 13.1217C16.0627 12.9328 16.0007 12.7184 16 12.5V10.625C16 10.4592 15.9297 10.3003 15.8047 10.1831C15.6797 10.0658 15.5101 10 15.3333 10Z"
    fill="white"
  />
  <path
    d="M10.6667 18.75C10.8435 18.75 11.013 18.6842 11.1381 18.567C11.2631 18.4497 11.3333 18.2908 11.3333 18.125V15.5363C11.9043 15.3985 12.4104 15.087 12.7723 14.6507C13.1342 14.2143 13.3316 13.6777 13.3333 13.125C13.3333 11.8808 12.2699 10 10.6667 10C9.06347 10 8 11.8808 8 13.125C8.00178 13.6777 8.19909 14.2143 8.56101 14.6507C8.92293 15.087 9.42902 15.3985 10 15.5363V18.125C10 18.2908 10.0702 18.4497 10.1953 18.567C10.3203 18.6842 10.4899 18.75 10.6667 18.75ZM9.33333 13.125C9.33333 12.3505 10.0228 11.25 10.6667 11.25C11.3105 11.25 12 12.3505 12 13.125C12 13.4565 11.8595 13.7745 11.6095 14.0089C11.3594 14.2433 11.0203 14.375 10.6667 14.375C10.313 14.375 9.97391 14.2433 9.72386 14.0089C9.47381 13.7745 9.33333 13.4565 9.33333 13.125Z"
    fill="white"
  />
  <path
    d="M8.66663 20.625H7.33329C7.15648 20.625 6.98691 20.6908 6.86189 20.8081C6.73686 20.9253 6.66663 21.0842 6.66663 21.25C6.66663 21.4158 6.73686 21.5747 6.86189 21.6919C6.98691 21.8092 7.15648 21.875 7.33329 21.875H8.66663C8.84344 21.875 9.01301 21.8092 9.13803 21.6919C9.26305 21.5747 9.33329 21.4158 9.33329 21.25C9.33329 21.0842 9.26305 20.9253 9.13803 20.8081C9.01301 20.6908 8.84344 20.625 8.66663 20.625Z"
    fill="white"
  />
  <path
    d="M21.3333 21.25C21.3333 21.0842 21.2631 20.9253 21.138 20.8081C21.013 20.6908 20.8434 20.625 20.6666 20.625H11.3333C11.1565 20.625 10.9869 20.6908 10.8619 20.8081C10.7369 20.9253 10.6666 21.0842 10.6666 21.25C10.6666 21.4158 10.7369 21.5747 10.8619 21.6919C10.9869 21.8092 11.1565 21.875 11.3333 21.875H20.6666C20.8434 21.875 21.013 21.8092 21.138 21.6919C21.2631 21.5747 21.3333 21.4158 21.3333 21.25Z"
    fill="white"
  />
  <path
    d="M8.66663 23.75H7.33329C7.15648 23.75 6.98691 23.8158 6.86189 23.9331C6.73686 24.0503 6.66663 24.2092 6.66663 24.375C6.66663 24.5408 6.73686 24.6997 6.86189 24.8169C6.98691 24.9342 7.15648 25 7.33329 25H8.66663C8.84344 25 9.01301 24.9342 9.13803 24.8169C9.26305 24.6997 9.33329 24.5408 9.33329 24.375C9.33329 24.2092 9.26305 24.0503 9.13803 23.9331C9.01301 23.8158 8.84344 23.75 8.66663 23.75Z"
    fill="white"
  />
  <path
    d="M18.6666 24.375C18.6666 24.2092 18.5964 24.0503 18.4714 23.9331C18.3463 23.8158 18.1768 23.75 18 23.75H11.3333C11.1565 23.75 10.9869 23.8158 10.8619 23.9331C10.7369 24.0503 10.6666 24.2092 10.6666 24.375C10.6666 24.5408 10.7369 24.6997 10.8619 24.8169C10.9869 24.9342 11.1565 25 11.3333 25H18C18.1768 25 18.3463 24.9342 18.4714 24.8169C18.5964 24.6997 18.6666 24.5408 18.6666 24.375Z"
    fill="white"
  />
  <path
    d="M8.66663 26.875H7.33329C7.15648 26.875 6.98691 26.9408 6.86189 27.0581C6.73686 27.1753 6.66663 27.3342 6.66663 27.5C6.66663 27.6658 6.73686 27.8247 6.86189 27.9419C6.98691 28.0592 7.15648 28.125 7.33329 28.125H8.66663C8.84344 28.125 9.01301 28.0592 9.13803 27.9419C9.26305 27.8247 9.33329 27.6658 9.33329 27.5C9.33329 27.3342 9.26305 27.1753 9.13803 27.0581C9.01301 26.9408 8.84344 26.875 8.66663 26.875Z"
    fill="white"
  />
  <path
    d="M16 27.5C16 27.3342 15.9297 27.1753 15.8047 27.0581C15.6797 26.9408 15.5101 26.875 15.3333 26.875H11.3333C11.1565 26.875 10.9869 26.9408 10.8619 27.0581C10.7369 27.1753 10.6666 27.3342 10.6666 27.5C10.6666 27.6658 10.7369 27.8247 10.8619 27.9419C10.9869 28.0592 11.1565 28.125 11.3333 28.125H15.3333C15.5101 28.125 15.6797 28.0592 15.8047 27.9419C15.9297 27.8247 16 27.6658 16 27.5Z"
    fill="white"
  />
  <path
    d="M8.66663 30H7.33329C7.15648 30 6.98691 30.0658 6.86189 30.1831C6.73686 30.3003 6.66663 30.4592 6.66663 30.625C6.66663 30.7908 6.73686 30.9497 6.86189 31.0669C6.98691 31.1842 7.15648 31.25 7.33329 31.25H8.66663C8.84344 31.25 9.01301 31.1842 9.13803 31.0669C9.26305 30.9497 9.33329 30.7908 9.33329 30.625C9.33329 30.4592 9.26305 30.3003 9.13803 30.1831C9.01301 30.0658 8.84344 30 8.66663 30Z"
    fill="white"
  />
  <path
    d="M11.3333 30C11.1565 30 10.9869 30.0658 10.8619 30.1831C10.7369 30.3003 10.6666 30.4592 10.6666 30.625C10.6666 30.7908 10.7369 30.9497 10.8619 31.0669C10.9869 31.1842 11.1565 31.25 11.3333 31.25H12.6666C12.8434 31.25 13.013 31.1842 13.138 31.0669C13.2631 30.9497 13.3333 30.7908 13.3333 30.625C13.3333 30.4592 13.2631 30.3003 13.138 30.1831C13.013 30.0658 12.8434 30 12.6666 30H11.3333Z"
    fill="white"
  />
  <path
    d="M3.33329 8.75C3.70148 8.75 3.99996 8.47018 3.99996 8.125C3.99996 7.77982 3.70148 7.5 3.33329 7.5C2.9651 7.5 2.66663 7.77982 2.66663 8.125C2.66663 8.47018 2.9651 8.75 3.33329 8.75Z"
    fill="white"
  />
  <path
    d="M24.6667 8.75C25.0349 8.75 25.3333 8.47018 25.3333 8.125C25.3333 7.77982 25.0349 7.5 24.6667 7.5C24.2985 7.5 24 7.77982 24 8.125C24 8.47018 24.2985 8.75 24.6667 8.75Z"
    fill="white"
  />
  <path
    d="M3.33329 35C3.70148 35 3.99996 34.7202 3.99996 34.375C3.99996 34.0298 3.70148 33.75 3.33329 33.75C2.9651 33.75 2.66663 34.0298 2.66663 34.375C2.66663 34.7202 2.9651 35 3.33329 35Z"
    fill="white"
  />
</svg>
