<svg
  width="45"
  height="45"
  viewBox="0 0 45 45"
  fill="none"
  xmlns="http://www.w3.org/2000/svg"
>
  <path d="M10.0214 8.41028H11.4005V9.74342H10.0214V8.41028Z" fill="white" />
  <path d="M15.5388 8.41028H16.9179V9.74342H15.5388V8.41028Z" fill="white" />
  <path
    d="M3.81439 25.7431H3.12483C2.92874 25.7431 2.74189 25.8238 2.61116 25.965C2.48009 26.1063 2.41781 26.2945 2.43937 26.4831L3.81436 38.4451V41.0767C3.81436 41.2533 3.88725 41.423 4.01627 41.5481C4.14563 41.6728 4.32119 41.7432 4.50393 41.7432H22.4353C22.6181 41.7432 22.7936 41.6728 22.923 41.5481C23.0523 41.423 23.1249 41.2533 23.1249 41.0767V38.4451L24.4999 26.4831C24.5214 26.2945 24.4591 26.1063 24.3284 25.965C24.1974 25.8238 24.0105 25.7431 23.8144 25.7431H23.1249V21.0764C23.1249 20.5461 22.9069 20.0373 22.5188 19.6622C22.1307 19.2874 21.6047 19.0767 21.0558 19.0767H5.88407C5.33516 19.0767 4.80913 19.2874 4.42112 19.6622C4.03305 20.0373 3.81505 20.5462 3.81505 21.0764L3.81439 25.7431ZM21.7449 40.4091H5.19332V39.076H21.7449V40.4091ZM20.3658 20.4095H21.0554C21.2384 20.4095 21.4137 20.4796 21.543 20.6046C21.6724 20.7297 21.7449 20.8994 21.7449 21.0761V25.7427H20.3658L20.3658 20.4095ZM15.8341 21.5154L16.1031 23.0762H14.7582L15.8341 21.5154ZM14.9389 20.4095L13.4695 22.5428L11.9997 20.4095H14.9389ZM11.1043 21.5154L12.1802 23.0762H10.8353L11.1043 21.5154ZM7.95224 20.4095H9.89703L9.34127 23.6328H9.34092C9.30773 23.826 9.36385 24.0238 9.49492 24.1734C9.62565 24.3229 9.81831 24.4092 10.0209 24.4096H16.9176C17.1202 24.4092 17.3128 24.3229 17.4436 24.1734C17.5746 24.0238 17.6311 23.826 17.5976 23.6328L17.0415 20.4095H18.9862V25.7428H7.95215L7.95224 20.4095ZM5.19367 21.0761C5.19367 20.7079 5.50235 20.4095 5.88323 20.4095H6.5728V25.7428H5.19369L5.19367 21.0761ZM23.0436 27.0759L21.8174 37.7423H5.12481L3.89525 27.0759H23.0436Z"
    fill="white"
  />
  <path
    d="M13.4696 35.0765C14.2009 35.0765 14.9027 34.7957 15.4199 34.2955C15.9373 33.7956 16.2278 33.1172 16.2278 32.4098C16.2278 31.7029 15.9373 31.0245 15.4199 30.5242C14.9028 30.0244 14.2009 29.7432 13.4696 29.7432C12.7379 29.7432 12.0361 30.0244 11.5189 30.5242C11.0015 31.0244 10.7109 31.7029 10.7109 32.4098C10.7109 33.1171 11.0015 33.7956 11.5189 34.2955C12.036 34.7957 12.7379 35.0765 13.4696 35.0765ZM13.4696 31.0768C13.8351 31.0768 14.1862 31.2174 14.4449 31.4671C14.7033 31.7172 14.8487 32.0563 14.8487 32.4099C14.8487 32.7636 14.7033 33.103 14.4449 33.3528C14.1862 33.6028 13.8351 33.7434 13.4696 33.7434C13.1037 33.7434 12.7526 33.6028 12.4942 33.3528C12.2355 33.103 12.0901 32.7636 12.0901 32.4099C12.0901 32.0563 12.2355 31.7172 12.4942 31.4671C12.7526 31.2174 13.1037 31.0768 13.4696 31.0768Z"
    fill="white"
  />
  <path d="M12.78 9.74329H14.1591V12.4099H12.78V9.74329Z" fill="white" />
  <path
    d="M20.366 2.4102C20.366 2.23322 20.2934 2.06384 20.1641 1.93879C20.0347 1.81375 19.8592 1.74329 19.6764 1.74329H7.26253C6.88164 1.74329 6.57296 2.042 6.57296 2.4102V8.4101C5.58739 8.4101 4.67671 8.91822 4.18392 9.74324C3.69113 10.5683 3.69113 11.5848 4.18392 12.4099C4.67671 13.2349 5.58739 13.7433 6.57296 13.7433V17.0765C6.57296 17.2532 6.64551 17.4229 6.77487 17.5479C6.90423 17.673 7.07979 17.7431 7.26253 17.7431H19.6764C19.8592 17.7431 20.0347 17.673 20.1641 17.5479C20.2934 17.4229 20.366 17.2532 20.366 17.0765V13.7433C21.3516 13.7433 22.2622 13.2349 22.755 12.4099C23.2478 11.5848 23.2478 10.5683 22.755 9.74324C22.2622 8.9182 21.3516 8.4101 20.366 8.4101V2.4102ZM6.57316 12.41C6.08037 12.41 5.62525 12.156 5.37881 11.7435C5.13242 11.3309 5.13242 10.8228 5.37881 10.4103C5.62521 9.99779 6.08035 9.7434 6.57316 9.7434V12.41ZM18.9871 16.4098L7.95297 16.4101V7.07678H18.9871V16.4098ZM18.9871 5.74347H7.95297V3.07685H18.9871V5.74347ZM21.7456 11.0768C21.7456 11.4304 21.6005 11.7695 21.3418 12.0196C21.0831 12.2697 20.7323 12.41 20.3665 12.41V9.74335C20.7323 9.74335 21.0831 9.88395 21.3418 10.134C21.6005 10.3841 21.7456 10.7231 21.7456 11.0768Z"
    fill="white"
  />
  <path d="M11.4011 13.7439H15.5388V15.077H11.4011V13.7439Z" fill="white" />
  <path
    d="M26.1734 31.6196C26.4092 31.7817 26.7247 31.784 26.9633 31.6259L37.8221 24.41H41.7453C41.9284 24.41 42.1036 24.3395 42.2329 24.2145C42.3623 24.0894 42.4352 23.9201 42.4352 23.7431V2.41044C42.4352 2.23346 42.3623 2.06409 42.2329 1.93904C42.1036 1.81399 41.9284 1.74353 41.7453 1.74353H25.1937C24.8128 1.74353 24.5038 2.04225 24.5038 2.41044V23.7431C24.5038 23.9201 24.5767 24.0894 24.706 24.2145C24.8354 24.3395 25.0106 24.41 25.1937 24.41H27.7391L25.9076 30.9011H25.9073C25.8313 31.171 25.9376 31.4579 26.1734 31.6196ZM29.3071 23.9184C29.3639 23.7179 29.3205 23.5035 29.1898 23.3385C29.0594 23.1734 28.8568 23.0764 28.6419 23.0764H25.8833V3.07678H41.0551V23.0764H37.607C37.4677 23.0764 37.3315 23.1175 37.2165 23.1939L27.733 29.4958L29.3071 23.9184Z"
    fill="white"
  />
  <path
    d="M38.9869 9.74323C38.9879 7.90958 38.0143 6.20424 36.4093 5.22738C34.804 4.25052 32.7921 4.13932 31.082 4.93263C29.3719 5.72624 28.2037 7.31343 27.9884 9.13522C27.7729 10.957 28.5408 12.7579 30.0215 13.9039V15.0766C30.0215 15.4302 30.167 15.7693 30.4257 16.0194C30.6844 16.2695 31.0352 16.4101 31.401 16.4101V17.8574C30.8169 18.0562 30.3555 18.4978 30.144 19.0606C29.9325 19.6233 29.9931 20.2481 30.3086 20.7632C30.6245 21.2782 31.1621 21.6293 31.7743 21.7202C32.3865 21.8112 33.0087 21.6322 33.4697 21.2326C33.931 21.6322 34.5531 21.8112 35.1653 21.7202C35.7772 21.6293 36.3152 21.2783 36.631 20.7632C36.9465 20.2481 37.0071 19.6232 36.7956 19.0606C36.5841 18.4978 36.1228 18.0562 35.5386 17.8574V16.4101C35.9044 16.4101 36.2552 16.2695 36.5139 16.0194C36.7727 15.7693 36.9181 15.4303 36.9181 15.0766V13.9033C38.2243 12.8917 38.9851 11.3616 38.9867 9.74336L38.9869 9.74323ZM34.8492 20.4095C34.4683 20.4095 34.1596 20.1112 34.1596 19.743C34.1596 19.3748 33.8506 19.0764 33.4697 19.0764C33.0889 19.0764 32.7802 19.3748 32.7802 19.743C32.7802 20.0126 32.6121 20.2557 32.3545 20.3589C32.0968 20.4621 31.8001 20.4049 31.603 20.2144C31.4058 20.0238 31.3466 19.737 31.4534 19.4879C31.5602 19.2388 31.8117 19.0764 32.0906 19.0764C32.2734 19.0764 32.4489 19.0059 32.5783 18.8809C32.7076 18.7558 32.7802 18.5865 32.7802 18.4095V16.4098H34.1593V18.4098L34.1596 18.4095C34.1596 18.5865 34.2322 18.7558 34.3615 18.8809C34.4909 19.0059 34.6661 19.0764 34.8492 19.0764C35.2301 19.0764 35.5388 19.3748 35.5388 19.743C35.5388 20.1112 35.2301 20.4095 34.8492 20.4095ZM35.8334 13.0229C35.6486 13.1479 35.5387 13.3517 35.5387 13.5697V15.0762H31.4011V13.5697C31.4011 13.3517 31.2912 13.1479 31.1064 13.0229C30.2163 12.4238 29.6051 11.5108 29.4042 10.4803C29.2037 9.44987 29.4295 8.38434 30.0335 7.51333C30.6375 6.64233 31.5711 6.03529 32.6334 5.82324C32.9051 5.7713 33.1813 5.74451 33.4581 5.74318C34.6408 5.7412 35.7677 6.22848 36.5545 7.08225C37.3412 7.93573 37.7126 9.07375 37.5747 10.2091C37.4368 11.3447 36.803 12.3686 35.8335 13.023L35.8334 13.0229Z"
    fill="white"
  />
  <path d="M31.4009 7.07642H32.78V8.40956H31.4009V7.07642Z" fill="white" />
  <path d="M32.7798 8.41028H34.1589V9.74342H32.7798V8.41028Z" fill="white" />
  <path d="M34.1588 7.07642H35.5379V8.40956H34.1588V7.07642Z" fill="white" />
</svg>
