<svg width="41" height="41" viewBox="0 0 41 41" fill="none" xmlns="http://www.w3.org/2000/svg">
<path d="M8.02136 7.41028H9.40047V8.74342H8.02136V7.41028Z" fill="#F88502"/>
<path d="M13.5388 7.41028H14.9179V8.74342H13.5388V7.41028Z" fill="#F88502"/>
<path d="M1.81439 24.7431H1.12483C0.928735 24.7431 0.741888 24.8238 0.611161 24.965C0.480092 25.1063 0.417811 25.2945 0.439371 25.4831L1.81436 37.4451V40.0767C1.81436 40.2533 1.88725 40.423 2.01627 40.5481C2.14563 40.6728 2.32119 40.7432 2.50393 40.7432H20.4353C20.6181 40.7432 20.7936 40.6728 20.923 40.5481C21.0523 40.423 21.1249 40.2533 21.1249 40.0767V37.4451L22.4999 25.4831C22.5214 25.2945 22.4591 25.1063 22.3284 24.965C22.1974 24.8238 22.0105 24.7431 21.8144 24.7431H21.1249V20.0764C21.1249 19.5461 20.9069 19.0373 20.5188 18.6622C20.1307 18.2874 19.6047 18.0767 19.0558 18.0767H3.88407C3.33516 18.0767 2.80913 18.2874 2.42112 18.6622C2.03305 19.0373 1.81505 19.5462 1.81505 20.0764L1.81439 24.7431ZM19.7449 39.4091H3.19332V38.076H19.7449V39.4091ZM18.3658 19.4095H19.0554C19.2384 19.4095 19.4137 19.4796 19.543 19.6046C19.6724 19.7297 19.7449 19.8994 19.7449 20.0761V24.7427H18.3658L18.3658 19.4095ZM13.8341 20.5154L14.1031 22.0762H12.7582L13.8341 20.5154ZM12.9389 19.4095L11.4695 21.5428L9.99968 19.4095H12.9389ZM9.10434 20.5154L10.1802 22.0762H8.8353L9.10434 20.5154ZM5.95224 19.4095H7.89703L7.34127 22.6328H7.34092C7.30773 22.826 7.36385 23.0238 7.49492 23.1734C7.62565 23.3229 7.81831 23.4092 8.0209 23.4096H14.9176C15.1202 23.4092 15.3128 23.3229 15.4436 23.1734C15.5746 23.0238 15.6311 22.826 15.5976 22.6328L15.0415 19.4095H16.9862V24.7428H5.95215L5.95224 19.4095ZM3.19367 20.0761C3.19367 19.7079 3.50235 19.4095 3.88323 19.4095H4.5728V24.7428H3.19369L3.19367 20.0761ZM21.0436 26.0759L19.8174 36.7423H3.12481L1.89525 26.0759H21.0436Z" fill="#F88502"/>
<path d="M11.4696 34.0765C12.2009 34.0765 12.9027 33.7957 13.4199 33.2955C13.9373 32.7956 14.2278 32.1172 14.2278 31.4098C14.2278 30.7029 13.9373 30.0245 13.4199 29.5242C12.9028 29.0244 12.2009 28.7432 11.4696 28.7432C10.7379 28.7432 10.0361 29.0244 9.51891 29.5242C9.00149 30.0244 8.71094 30.7029 8.71094 31.4098C8.71094 32.1171 9.00148 32.7956 9.51891 33.2955C10.036 33.7957 10.7379 34.0765 11.4696 34.0765ZM11.4696 30.0768C11.8351 30.0768 12.1862 30.2174 12.4449 30.4671C12.7033 30.7172 12.8487 31.0563 12.8487 31.4099C12.8487 31.7636 12.7033 32.103 12.4449 32.3528C12.1862 32.6028 11.8351 32.7434 11.4696 32.7434C11.1037 32.7434 10.7526 32.6028 10.4942 32.3528C10.2355 32.103 10.0901 31.7636 10.0901 31.4099C10.0901 31.0563 10.2355 30.7172 10.4942 30.4671C10.7526 30.2174 11.1037 30.0768 11.4696 30.0768Z" fill="#F88502"/>
<path d="M10.78 8.74329H12.1591V11.4099H10.78V8.74329Z" fill="#F88502"/>
<path d="M18.366 1.4102C18.366 1.23322 18.2934 1.06384 18.1641 0.938794C18.0347 0.813745 17.8592 0.743286 17.6764 0.743286H5.26253C4.88164 0.743286 4.57296 1.042 4.57296 1.4102V7.4101C3.58739 7.4101 2.67671 7.91822 2.18392 8.74324C1.69113 9.56827 1.69113 10.5848 2.18392 11.4099C2.67671 12.2349 3.58739 12.7433 4.57296 12.7433V16.0765C4.57296 16.2532 4.64551 16.4229 4.77487 16.5479C4.90423 16.673 5.07979 16.7431 5.26253 16.7431H17.6764C17.8592 16.7431 18.0347 16.673 18.1641 16.5479C18.2934 16.4229 18.366 16.2532 18.366 16.0765V12.7433C19.3516 12.7433 20.2622 12.2349 20.755 11.4099C21.2478 10.5848 21.2478 9.56826 20.755 8.74324C20.2622 7.9182 19.3516 7.4101 18.366 7.4101V1.4102ZM4.57316 11.41C4.08037 11.41 3.62525 11.156 3.37881 10.7435C3.13242 10.3309 3.13242 9.82282 3.37881 9.41031C3.62521 8.99779 4.08035 8.7434 4.57316 8.7434V11.41ZM16.9871 15.4098L5.95297 15.4101V6.07678H16.9871V15.4098ZM16.9871 4.74347H5.95297V2.07685H16.9871V4.74347ZM19.7456 10.0768C19.7456 10.4304 19.6005 10.7695 19.3418 11.0196C19.0831 11.2697 18.7323 11.41 18.3665 11.41V8.74335C18.7323 8.74335 19.0831 8.88395 19.3418 9.13404C19.6005 9.38413 19.7456 9.72315 19.7456 10.0768Z" fill="#F88502"/>
<path d="M9.40112 12.7439H13.5388V14.077H9.40112V12.7439Z" fill="#F88502"/>
<path d="M24.1734 30.6196C24.4092 30.7817 24.7247 30.784 24.9633 30.6259L35.8221 23.41H39.7453C39.9284 23.41 40.1036 23.3395 40.2329 23.2145C40.3623 23.0894 40.4352 22.9201 40.4352 22.7431V1.41044C40.4352 1.23346 40.3623 1.06409 40.2329 0.939038C40.1036 0.813989 39.9284 0.74353 39.7453 0.74353H23.1937C22.8128 0.74353 22.5038 1.04225 22.5038 1.41044V22.7431C22.5038 22.9201 22.5767 23.0894 22.706 23.2145C22.8354 23.3395 23.0106 23.41 23.1937 23.41H25.7391L23.9076 29.9011H23.9073C23.8313 30.171 23.9376 30.4579 24.1734 30.6196ZM27.3071 22.9184C27.3639 22.7179 27.3205 22.5035 27.1898 22.3385C27.0594 22.1734 26.8568 22.0764 26.6419 22.0764H23.8833V2.07678H39.0551V22.0764H35.607C35.4677 22.0764 35.3315 22.1175 35.2165 22.1939L25.733 28.4958L27.3071 22.9184Z" fill="#F88502"/>
<path d="M36.9869 8.74323C36.9879 6.90958 36.0143 5.20424 34.4093 4.22738C32.804 3.25052 30.7921 3.13932 29.082 3.93263C27.3719 4.72624 26.2037 6.31343 25.9884 8.13522C25.7729 9.957 26.5408 11.7579 28.0215 12.9039V14.0766C28.0215 14.4302 28.167 14.7693 28.4257 15.0194C28.6844 15.2695 29.0352 15.4101 29.401 15.4101V16.8574C28.8169 17.0562 28.3555 17.4978 28.144 18.0606C27.9325 18.6233 27.9931 19.2481 28.3086 19.7632C28.6245 20.2782 29.1621 20.6293 29.7743 20.7202C30.3865 20.8112 31.0087 20.6322 31.4697 20.2326C31.931 20.6322 32.5531 20.8112 33.1653 20.7202C33.7772 20.6293 34.3152 20.2783 34.631 19.7632C34.9465 19.2481 35.0071 18.6232 34.7956 18.0606C34.5841 17.4978 34.1228 17.0562 33.5386 16.8574V15.4101C33.9044 15.4101 34.2552 15.2695 34.5139 15.0194C34.7727 14.7693 34.9181 14.4303 34.9181 14.0766V12.9033C36.2243 11.8917 36.9851 10.3616 36.9867 8.74336L36.9869 8.74323ZM32.8492 19.4095C32.4683 19.4095 32.1596 19.1112 32.1596 18.743C32.1596 18.3748 31.8506 18.0764 31.4697 18.0764C31.0889 18.0764 30.7802 18.3748 30.7802 18.743C30.7802 19.0126 30.6121 19.2557 30.3545 19.3589C30.0968 19.4621 29.8001 19.4049 29.603 19.2144C29.4058 19.0238 29.3466 18.737 29.4534 18.4879C29.5602 18.2388 29.8117 18.0764 30.0906 18.0764C30.2734 18.0764 30.4489 18.0059 30.5783 17.8809C30.7076 17.7558 30.7802 17.5865 30.7802 17.4095V15.4098H32.1593V17.4098L32.1596 17.4095C32.1596 17.5865 32.2322 17.7558 32.3615 17.8809C32.4909 18.0059 32.6661 18.0764 32.8492 18.0764C33.2301 18.0764 33.5388 18.3748 33.5388 18.743C33.5388 19.1112 33.2301 19.4095 32.8492 19.4095ZM33.8334 12.0229C33.6486 12.1479 33.5387 12.3517 33.5387 12.5697V14.0762H29.4011V12.5697C29.4011 12.3517 29.2912 12.1479 29.1064 12.0229C28.2163 11.4238 27.6051 10.5108 27.4042 9.48034C27.2037 8.44987 27.4295 7.38434 28.0335 6.51333C28.6375 5.64233 29.5711 5.03529 30.6334 4.82324C30.9051 4.7713 31.1813 4.74451 31.4581 4.74318C32.6408 4.7412 33.7677 5.22848 34.5545 6.08225C35.3412 6.93573 35.7126 8.07375 35.5747 9.20906C35.4368 10.3447 34.803 11.3686 33.8335 12.023L33.8334 12.0229Z" fill="#F88502"/>
<path d="M29.4009 6.07642H30.78V7.40956H29.4009V6.07642Z" fill="#F88502"/>
<path d="M30.7798 7.41028H32.1589V8.74342H30.7798V7.41028Z" fill="#F88502"/>
<path d="M32.1588 6.07642H33.5379V7.40956H32.1588V6.07642Z" fill="#F88502"/>
</svg>
